<svg enable-background="new 0 0 505 505" viewBox="0 0 505 505" xmlns="http://www.w3.org/2000/svg"><circle cx="252.5" cy="252.5" fill="#fd8469" r="252.5"/><path d="m284.7 93.2h-166v295h243.7v-217.4z" fill="#fff"/><g fill="#e6e9ee"><path d="m284.7 170.8h77.7l-77.7-77.6z"/><path d="m149.4 196.3h182.3v14.1h-182.3z"/><path d="m149.4 240.7h182.3v14.1h-182.3z"/><path d="m149.4 285h182.3v14.1h-182.3z"/><path d="m149.4 329.3h182.3v14.1h-182.3z"/></g><path d="m407.6 309h-16.8v54.6h16.8c5.6 0 10.2-4.6 10.2-10.2v-34.1c0-5.7-4.5-10.3-10.2-10.3z" fill="#324a5e"/><path d="m240.9 309h149.9v54.6h-149.9z" fill="#4cdbc4"/><path d="m193.4 336.3 18.9 11v-21.9z" fill="#324a5e"/><path d="m240.6 309-28.3 16.4v21.9l28.3 16.3h.3v-54.6z" fill="#ffd05b"/></svg>