<?xml version="1.0" encoding="iso-8859-1"?><!-- Generator: Adobe Illustrator 19.0.0, SVG Export Plug-In . SVG Version: 6.00 Build 0)  --><svg xmlns="http://www.w3.org/2000/svg" xmlns:xlink="http://www.w3.org/1999/xlink" version="1.1" id="Layer_1" x="0px" y="0px" viewBox="0 0 508 508" style="enable-background:new 0 0 508 508;" xml:space="preserve">
<circle style="fill:#FD8469;" cx="254" cy="254" r="254"/>
<path style="fill:#FFFFFF;" d="M436.4,271.6c0-10.8-8.8-20-20-20h-12c10.8,0,20-8.8,20-20c0-10.8-8.8-20-20-20h-68h-1.2  c-3.6,0.4-4.4-2.8-4-4.4c1.2-12,12-20,18.8-29.6c11.6-16.4,10.8-40.8-2-56.4c-1.6-2-4.8-4.8-8.8-8c-9.2-7.2-22.4-2.4-25.6,8.8  c-10,36.4-35.2,70.4-67.6,89.6V370h150.4c10.8,0,20-8.8,20-20c0-10.8-8.8-20-20-20h8c10.8,0,20-8.8,20-20c0-10.8-8.8-20-20-20h12  C427.6,291.2,436.4,282.4,436.4,271.6z"/>
<path style="fill:#54C0EB;" d="M238,205.6h-82.4v177.6H238c4.8,0,8.8-4,8.8-8.8V214C246.4,209.2,242.8,205.6,238,205.6z"/>
<path style="fill:#E6E9EE;" d="M155.6,205.6l-148-12.4c-4.8,19.6-7.2,40-7.2,60.8c0,51.2,15.2,98.8,41.2,138.4l114.4-9.6V205.6  H155.6z"/>
<circle style="fill:#324A5E;" cx="198.4" cy="349.6" r="11.2"/>
<g>
</g>
<g>
</g>
<g>
</g>
<g>
</g>
<g>
</g>
<g>
</g>
<g>
</g>
<g>
</g>
<g>
</g>
<g>
</g>
<g>
</g>
<g>
</g>
<g>
</g>
<g>
</g>
<g>
</g>
</svg>