<svg enable-background="new 0 0 505 505" viewBox="0 0 505 505" xmlns="http://www.w3.org/2000/svg"><circle cx="252.5" cy="252.5" fill="#84dbff" r="252.5"/><path d="m111.8 105.9h281.3v293.1h-281.3z" fill="#324a5e"/><circle cx="252.5" cy="252.5" fill="#e6e9ee" r="112.5"/><g fill="#324a5e"><path d="m248.2 150.1h8.6v16.1h-8.6z"/><path d="m248.2 338.8h8.6v16.1h-8.6z"/><path d="m338.8 248.2h16.1v8.6h-16.1z"/><path d="m150.1 248.2h16.1v8.6h-16.1z"/><path d="m314.923 177.72h8.6v16.1h-8.6z" transform="matrix(-.7071 -.7071 .7071 -.7071 413.5878 542.8533)"/><path d="m181.528 311.11h8.6v16.1h-8.6z" transform="matrix(-.7071 -.7071 .7071 -.7071 91.5485 676.2403)"/><path d="m314.933 311.185h8.6v16.1h-8.6z" transform="matrix(.7071 -.7071 .7071 .7071 -132.2323 319.2337)"/><path d="m181.547 177.795h8.6v16.1h-8.6z" transform="matrix(.7071 -.7071 .7071 .7071 -76.9791 185.8467)"/></g><g fill="#ff7058"><path d="m264.5 194.6-12-19.9-12 19.9 7.7-3.9v72.3h8.6v-72.3z"/><path d="m320.8 251-28.7-17.3 5.6 11h-59.2v12.5h59.2l-5.6 11.1z"/></g></svg>