<?xml version="1.0" encoding="iso-8859-1"?><!-- Generator: Adobe Illustrator 19.0.0, SVG Export Plug-In . SVG Version: 6.00 Build 0)  --><svg xmlns="http://www.w3.org/2000/svg" xmlns:xlink="http://www.w3.org/1999/xlink" version="1.1" id="Layer_1" x="0px" y="0px" viewBox="0 0 505 505" style="enable-background:new 0 0 505 505;" xml:space="preserve">
<circle style="fill:#84DBFF;" cx="252.5" cy="252.5" r="252.5"/>
<rect x="122.6" y="109.4" style="fill:#324A5E;" width="259.8" height="291"/>
<polygon style="fill:#FFFFFF;" points="382.4,109.4 122.6,109.4 122.6,400.3 302.2,400.3 382.4,320.2 "/>
<polygon style="fill:#CED5E0;" points="302.2,400.3 382.4,320.2 302.2,320.2 "/>
<g>
	<circle style="fill:#2B3B4E;" cx="160.7" cy="143.8" r="15.5"/>
	<circle style="fill:#2B3B4E;" cx="221.9" cy="143.8" r="15.5"/>
	<circle style="fill:#2B3B4E;" cx="283.1" cy="143.8" r="15.5"/>
	<circle style="fill:#2B3B4E;" cx="344.3" cy="143.8" r="15.5"/>
</g>
<g>
	<path style="fill:#324A5E;" d="M160.8,88.9c-4.4,0-7.9,3.6-7.9,7.9v41.7c0,4.4,3.6,7.9,7.9,7.9c4.4,0,7.9-3.6,7.9-7.9V96.8   C168.8,92.5,165.2,88.9,160.8,88.9z"/>
	<path style="fill:#324A5E;" d="M221.9,88.9c-4.4,0-7.9,3.6-7.9,7.9v41.7c0,4.4,3.6,7.9,7.9,7.9c4.4,0,7.9-3.6,7.9-7.9V96.8   C229.8,92.5,226.3,88.9,221.9,88.9z"/>
	<path style="fill:#324A5E;" d="M283,88.9c-4.4,0-7.9,3.6-7.9,7.9v41.7c0,4.4,3.6,7.9,7.9,7.9c4.4,0,7.9-3.6,7.9-7.9V96.8   C290.9,92.5,287.4,88.9,283,88.9z"/>
	<path style="fill:#324A5E;" d="M344.1,88.9c-4.4,0-7.9,3.6-7.9,7.9v41.7c0,4.4,3.6,7.9,7.9,7.9c4.4,0,7.9-3.6,7.9-7.9V96.8   C352,92.5,348.5,88.9,344.1,88.9z"/>
</g>
<g>
	<rect x="152.9" y="198.8" style="fill:#E6E9EE;" width="191.4" height="13.4"/>
	<rect x="152.9" y="248.1" style="fill:#E6E9EE;" width="191.4" height="13.4"/>
	<rect x="152.9" y="297.4" style="fill:#E6E9EE;" width="117.5" height="13.4"/>
	<rect x="152.9" y="346.7" style="fill:#E6E9EE;" width="116.5" height="13.4"/>
</g>
<g>
</g>
<g>
</g>
<g>
</g>
<g>
</g>
<g>
</g>
<g>
</g>
<g>
</g>
<g>
</g>
<g>
</g>
<g>
</g>
<g>
</g>
<g>
</g>
<g>
</g>
<g>
</g>
<g>
</g>
</svg>